<svg xmlns="http://www.w3.org/2000/svg" id="앞으로_전체가기" width="28" height="28" viewBox="0 0 28 28">
    <defs>
        <style>
            .cls-2{fill:#d9d9d9}
        </style>
    </defs>
    <path id="사각형_3418" fill="none" d="M0 0H28V28H0z"/>
    <g id="그룹_1140" transform="translate(6 7)">
        <path id="Shape" d="M1.421-3.826L7.544-9.65a1.674 1.674 0 0 1 2.035 0 1.032 1.032 0 0 1 0 1.664l-5.1 4.992L9.579 2a1.032 1.032 0 0 1 0 1.664 1.674 1.674 0 0 1-2.035 0L1.421-2.162A1.075 1.075 0 0 1 1-2.994a1.075 1.075 0 0 1 .421-.832z" class="cls-2" transform="translate(6 9.994)"/>
        <path id="Shape-2" d="M1.421-3.826L7.544-9.65a1.674 1.674 0 0 1 2.035 0 1.032 1.032 0 0 1 0 1.664l-5.1 4.992L9.579 2a1.032 1.032 0 0 1 0 1.664 1.674 1.674 0 0 1-2.035 0L1.421-2.162A1.075 1.075 0 0 1 1-2.994a1.075 1.075 0 0 1 .421-.832z" class="cls-2" transform="translate(-1 9.994)"/>
    </g>
    <g id="그룹_1140-2" transform="translate(6 7)">
        <path id="Shape-3" d="M1.421-3.826L7.544-9.65a1.674 1.674 0 0 1 2.035 0 1.032 1.032 0 0 1 0 1.664l-5.1 4.992L9.579 2a1.032 1.032 0 0 1 0 1.664 1.674 1.674 0 0 1-2.035 0L1.421-2.162A1.075 1.075 0 0 1 1-2.994a1.075 1.075 0 0 1 .421-.832z" class="cls-2" transform="translate(6 9.994)"/>
        <path id="Shape-4" d="M1.421-3.826L7.544-9.65a1.674 1.674 0 0 1 2.035 0 1.032 1.032 0 0 1 0 1.664l-5.1 4.992L9.579 2a1.032 1.032 0 0 1 0 1.664 1.674 1.674 0 0 1-2.035 0L1.421-2.162A1.075 1.075 0 0 1 1-2.994a1.075 1.075 0 0 1 .421-.832z" class="cls-2" transform="translate(-1 9.994)"/>
    </g>
</svg>
